<svg width="99" height="99" viewBox="0 0 99 99" fill="none" xmlns="http://www.w3.org/2000/svg">
<g clip-path="url(#clip0_356_30)">
<path fill-rule="evenodd" clip-rule="evenodd" d="M69.1874 65.069C63.6606 67.3719 57.4667 69 51 69C28.9086 69 7 50 7 50C7 50 13.6065 43.9691 23.2219 38.5307L35.5921 45.6727C35.2063 47.049 35 48.5004 35 50C35 58.8366 42.1634 66 51 66C55.4869 66 59.5425 64.153 62.4479 61.1779L69.1874 65.069ZM76.5888 61.4214C85.9032 56.1263 92 50 92 50C92 50 73.0914 30 51 30C43.9258 30 36.8703 32.0509 30.547 34.8392L38.8249 39.6184C41.7596 36.1801 46.1252 34 51 34C59.8366 34 67 41.1634 67 50C67 51.8782 66.6764 53.6809 66.0818 55.3552L76.5888 61.4214ZM59.7462 59.6181L38.295 47.2332C38.1018 48.1248 38 49.0505 38 50C38 57.1797 43.8203 63 51 63C54.368 63 57.4369 61.7192 59.7462 59.6181ZM41.4775 41.1499L63.4287 53.8234C63.8001 52.6146 64 51.3306 64 50C64 42.8203 58.1797 37 51 37C47.2391 37 43.8512 38.597 41.4775 41.1499Z" fill="#B5A7F7"/>
<rect x="20" y="33.7507" width="4.33089" height="70.9012" transform="rotate(-60 20 33.7507)" fill="#B5A7F7"/>
</g>
<defs>
<clipPath id="clip0_356_30">
<rect width="85" height="39" fill="white" transform="translate(7 30)"/>
</clipPath>
</defs>
</svg>
