<svg width="99" height="99" viewBox="0 0 99 99" fill="none" xmlns="http://www.w3.org/2000/svg">
<g clip-path="url(#clip0_356_30)">
<path fill-rule="evenodd" clip-rule="evenodd" d="M24.1545 38.0105C14.0362 43.5767 7 50 7 50C7 50 28.9086 69 51 69C57.8808 69 64.4528 67.1568 70.2409 64.6185L63.0845 60.4868C60.151 63.8643 55.8249 66 51 66C42.1634 66 35 58.8366 35 50C35 48.1707 35.307 46.413 35.8723 44.7758L24.1545 38.0105ZM38.5309 46.3107C38.1854 47.4803 38 48.7185 38 50C38 57.1797 43.8203 63 51 63C54.7105 63 58.0579 61.4455 60.4265 58.9522L38.5309 46.3107ZM63.5511 53.3993L41.7835 40.8318C44.1379 38.465 47.3979 37 51 37C58.1797 37 64 42.8203 64 50C64 51.1761 63.8438 52.3157 63.5511 53.3993ZM66.2223 54.9415C66.7272 53.3853 67 51.7245 67 50C67 41.1634 59.8366 34 51 34C46.2823 34 42.0415 36.0418 39.1131 39.29L31.035 34.6261C37.2322 31.947 44.1072 30 51 30C73.0914 30 92 50 92 50C92 50 86.0905 55.9381 77.019 61.175L66.2223 54.9415Z" fill="#B5A7F7"/>
<rect x="20" y="33.7507" width="4.33089" height="70.9012" transform="rotate(-60 20 33.7507)" fill="#B5A7F7"/>
</g>
<defs>
<clipPath id="clip0_356_30">
<rect width="85" height="39" fill="white" transform="translate(7 30)"/>
</clipPath>
</defs>
</svg>
