<svg width="99" height="99" viewBox="0 0 99 99" fill="none" xmlns="http://www.w3.org/2000/svg">
<path fill-rule="evenodd" clip-rule="evenodd" d="M51 69C73.0914 69 92 50 92 50C92 50 73.0914 30 51 30C28.9086 30 7 50 7 50C7 50 28.9086 69 51 69ZM51 66C59.8366 66 67 58.8366 67 50C67 41.1634 59.8366 34 51 34C42.1634 34 35 41.1634 35 50C35 58.8366 42.1634 66 51 66Z" fill="#B5A7F7"/>
<path d="M64 50C64 57.1797 58.1797 63 51 63C43.8203 63 38 57.1797 38 50C38 42.8203 43.8203 37 51 37C58.1797 37 64 42.8203 64 50Z" fill="#B5A7F7"/>
</svg>
